<svg xmlns="http://www.w3.org/2000/svg" id="Layer_1" viewBox="279.73 280.17 1360.57 280.19"><defs><style>.cls-1{fill:#fff;}</style></defs><g><path class="cls-1" d="M1391.88,345.43l1.49,3.87,2.67,3.85,3.57,3.57,3.85,2.67,5.65,2.07,3.86,.59,38.6,2.37,3.56,1.48,1.78,1.49,2.98,3.27c4.88,7.92-.42,18.83-8.91,20.78l-6.54,.89h-51.65v12.17h64.13l2.08-.3c19.41-5.11,28.36-29.04,14.26-44.54l-3.27-2.96-3.57-2.38-3.56-1.49-7.12-1.49-37.71-2.37-1.48-.3-1.49-.59-1.48-.89-1.19-1.19-1.79-2.67-1.18-2.67-.3-2.67,.6-2.67,.88-2.68,1.49-2.67,2.37-2.38,2.37-1.47,2.97-.9,2.09-.29h50.48v-12.77h-59.38c-13.23,1.57-24.13,14.97-22.27,29.1l1.19,4.16"></path><polygon class="cls-1" points="711.45 405.71 711.45 333.85 717.4 344.24 748.87 403.33 766.68 403.33 804.99 332.66 804.99 405.42 823.7 405.42 823.7 312.17 801.73 312.17 761.05 387.3 720.95 312.17 698.69 312.17 698.69 405.71 711.45 405.71"></polygon><path class="cls-1" d="M1083.85,382.55l3.27,7.13,2.37,3.56c9.78,11.5,26.7,12.86,40.68,13.36l6.53-.3,12.46-1.49c14.04-3.76,22.5-6.62,28.21-21.08l1.49-5.64v-66.22h-18.11v63.84c-3.75,27.09-56.19,26.96-59.68,.59v-64.43h-18.41v63.55l1.19,7.12"></path><rect class="cls-1" x="850.12" y="312.17" width="18.41" height="93.24"></rect><polygon class="cls-1" points="917.52 324.94 917.52 405.42 935.94 405.42 935.94 324.94 970.98 324.94 970.98 312.17 881.9 312.17 881.9 324.94 917.52 324.94"></polygon><path class="cls-1" d="M979.6,345.43l1.47,3.87,2.67,3.85,3.57,3.57,3.86,2.67,5.64,2.07,3.86,.59,38.63,2.37,3.57,1.48,1.78,1.49,2.96,3.27c4.88,7.91-.41,18.85-8.9,20.78l-6.54,.89h-51.69v12.17h64.17l2.08-.3c19.43-5.11,28.38-29.04,14.26-44.54l-3.27-2.96-3.56-2.38-3.57-1.49-7.12-1.49-37.72-2.37-1.5-.3-1.49-.59-1.49-.89-1.18-1.19-1.79-2.67-1.18-2.67-.3-2.67,.6-2.67,.88-2.68,1.49-2.67,2.38-2.38,2.37-1.47,2.97-.9,2.08-.29h50.5v-12.77h-59.43c-13.22,1.57-24.11,14.99-22.27,29.1l1.2,4.16"></path><polygon class="cls-1" points="1239.74 404.81 1267.35 404.81 1212.12 356.13 1262.61 311.88 1236.78 311.88 1186.29 356.42 1239.74 404.81"></polygon><polygon class="cls-1" points="1515.3 404.52 1515.3 361.76 1577.37 361.76 1577.37 404.52 1596.36 404.52 1596.36 311.28 1577.37 311.28 1577.37 348.7 1515.6 348.7 1515.6 311.28 1496.6 311.28 1496.6 404.52 1515.3 404.52"></polygon><rect class="cls-1" x="1621.88" y="312.17" width="18.41" height="93.24"></rect><path class="cls-1" d="M1285.48,368l1.49,4.45,2.67,5.64c20.23,30.9,66.38,19.25,69.77-17.52l-.29-7.12-1.48-7.43c-14.52-38.51-69.67-31.24-73.34,10.11v5.34l1.19,6.54m-18.71,.59l-.9-5.64v-7.73c2.69-51.85,82.65-61.44,106.61-20.48l2.08,4.16,1.77,5.94c16.45,66.79-83.05,81.45-106.3,34.15l-2.37-6.53-.89-3.87"></path></g><rect class="cls-1" x="698.69" y="416.02" width="941.61" height="8.51"></rect><g><path class="cls-1" d="M530.77,423.69l-.82,9.48-1.08,6.87c-26.1,126.51-204.29,120-219.73-8.4l-.35-7.35-.12-7.22c10.64-137.7,200.9-146.87,221.51-8.05l.59,9.82v4.84m28.53-8.63l-.34-6.17-.59-6.02-.84-5.93c-10.16-60.08-57.81-107.04-118.5-115.31l-.83-.24-.36-.24c-73.24-8.43-139.16,38.93-155.08,110.93l-.83,4.15-1.06,7.22-.6,5.44-.47,8.29c-2.24,70.33,48.36,131.31,118.15,141.61l9.47,1.07,4.74,.34c74.95,3.59,139.01-51.28,146.57-126.2l.47-6.4,.24-6.28-.12-6.27"></path><path class="cls-1" d="M463.05,473.56l-.24,.47-.35,.35-1.07,.48-5.92,1.06-6.99,.12-5.2-.35-7.94-1.31-.94-.24-.83-.58-.95-1.31v-4.74l.12-5.44,.47-6.52,.24,.23,.47,3.44,.59,2.26,.82,2.12,1.2,2.13,.84,.96,2,1.41,3.79,1.07,1.78,.24,3.55-.11,3.32-.48,3.2-.59,4.85-1.3,.6,.11,.59,.47,2.02,4.98v1.07m-30.19-60.64v-.35l.47-.83,.36-.35,1.65-.36,6.88-.83h1.54l.58,.71,2.97,13.26,3.56,14.45,.11,1.06-.47,.48-1.07,.24h-2.12l-1.55-.59-.7-.95-.24-.95-.12-2.01,.23-2.37-.23-.47h-.94c-6.69,3.67-8.19,9.42-10.07,16.34l-.36,3.08h-.23l-.36-19.78,.12-19.78m-26.52,52.94l-.36,.83-.71,.47h-1.54l-8.05-1.55-2.01-.71-.24-.34,.12-.36,5.92-6.28,1.66-1.53,.83-.35,1.65-.13,1.54,.36,.71,.47,.47,.72v8.4m-14.45-3.44l-1.17,1.18h-.71l-.35-.35,.12-.36,1.06-2.37,2.36-4.25,1.18-1.54h.71l.59,.23,.23,.24v.59l-2.24,4.02-1.79,2.61m-4.6-.59l-.37,.47-.47,.24-1.77-.35-1.66-.71v-.24l.24-.6,2.13-2.6,2.01-2.25,1.79-1.77,.83-.48,.71,.35v.71l-.47,1.44-2.96,5.79m-5.7-2.25l-.34,.84-.72,.59-3.54-.48-1.66-.47v-.58l1.07-1.54,2.48-2.84,4.03-3.91,.47-.23,.35,.35v.95l-.94,3.67-1.2,3.67m-13.02-.11l-.23-.36,.11-.35,1.06-1.78,2.72-3.44,2.72-2.95,2.61-2.38,1.18-.59,.48,.12,.24,.47-2.49,4.15-1.66,3.08-1.89,4.27-4.86-.24m-1.77-3.43l-1.07,2.01-.23,.71-.48,.58-1.18,.84-.83,.23h-.7l-.48-.36-.35-.83,.11-.83,1.42-2.84,3.43-5.45,1.67-2.37,3.66-4.49,1.78-1.9,1.77-1.66,1.66-1.3,.35-.12,.36,.23,.11,.7-1.41,3.09-1.78,2.72-3.56,4.75-4.26,6.29m-5.56-18.73l.24-1.65c1.23-8.2,12.19-11.45,19.05-12.32l1.79,.12-1.9,3.78-1.18,3.08-1.66,2.61-2.37,2.24-2.01,1.54-1.78,1.18-3.19,1.78-2.37,.95-1.78,.23-1.3-.11-.95-.24-.59-.71v-2.5m26.87-18.7l2.84-.72,12.9-2.13,.95,.12,.35,.24,.24,.83,.35,7.1v3.19l-.35,.48-.48-.12c-4.33-5.99-8.78-8.27-16.22-8.65l-.59-.11v-.23m131.41-25.34l-.59-1.07-.82-1.05-4.14-3.8-2.01-2.13-1.66-2.01-2.13-2.96-.83-.95-2.01-1.18-.95-.36-2.01-.47h-8.28l-8.17,.36-13.85,1.18-1.43-.47-.59-.95-.23-.95-.96-7.7-1.06-11.25,.12-3.66,.59-3.66,1.07-3.68,.59-3.67,.12-1.78-.59-3.55-.59-1.66-2.13-3.54-2.96-3.56-3.44-3.3-3.43-2.72c-6.77-4.75-16.23-9.58-23.21-2.5l-2.36,3.2-1.55,3.09-.95,3.19-1.29,6.4-.48,6.27,.13,6.15,.24,.72,.59,.71,1.43,.35,2.95,.23,1.41,.24,1.44,.7,.58,.61,.48,.71,1.3,11.95,1.77,14.32v2.73l-.46,.59-1.31,.35-1.89,.12-.6-.23-.24-.24-.34-1.3-.35-.6-1.19-1.29-2.6-1.9-3.91-2.01-3.91-.94-2.61-.24-1.3,.12-2.49,.71-1.18,.47-2.49,1.42-3.67,2.61-2.37,2.36-2.01,3.79-5.91,1.3-.6-.23-.35-.6,.35-5.92,.12-.59,.24-.48,.47-.48,4.61-2.24,4.5-2.72,2.24-1.66,2.26-1.9,2.24-2.13,.84-1.06,.95-2.13,.35-2.13,.12-4.38-.36-4.26-.95-5.09-.96-2.02-.7-.94-.95-.84-1.9-.82h-4.02l-5.33,.95-.96-.72-.11-1.89,.35-1.9,.12-3.79-.23-3.78-.71-3.67-.73-1.78-1.05-1.77-1.3-1.78-1.77-1.66-.83-.59c-9.55-5.13-20.82-.35-28.07,6.51l-3.08,2.84-2.84,2.95-5.09,6.05-.95,1.42-.94,2.13,.24,1.07,.71,.59,2.85,1.19,1.89,1.42,.83,1.3,.83,1.9,.47,4.02v1.31l-.24,.59-.59,.48-2.61,.58-7.57,.95-2.96,.12-.24-.24-.13-.58,.6-2.38-.36-1.18-.35-.47-1.07-.13-2.26,.96-2.24,1.18c-11.12,5.31-16.6,17.96-14.32,29.71l1.17,3.31,.84,1.66,1.06,1.66,1.53,1.53,2.25,1.66,1.53,.59c8.35,3.35,23.85-10.36,27.94-3.67l.12,2.25-.23,1.54-.25,.46-1.06,.73-16.69,6.62-3.08,.83-2.97,.59h-2.71l-1.31-.23-1.19-.47-1.18-.72-.96-1.18-.35-1.06-.23-3.09-.12-.47-.36-.36c-7.43,2.09-16.05,15.58-18.35,22.74l-.71,3.31-.12,3.44c.79,8.72,4.52,14.44,14.2,13.26l4.38-.59,4.38-.83,4.38-1.18h1.06l.48,.24-.13,.46-2.01,2.14-1.89,3.19-1.43,4.39-.35,2.13-.13,2.13,.35,3.21,.47,2.12c1,2.61,2.57,6.85,5.56,7.7l2.6,.59,.48,.37-.48,.35-4.26,.59-4.26-.24c-6.19,3.19-3.4,16.78,.48,21.79l3.08,4.13,4.03,4.03c14.41,13.98,16.32,3.76,33.03,1.41l3.9-.47,5.79,.12,3.91,.7,3.79,1.07c13.22,4.7,17.59,14.7,32.44,18.72l3.8,1.07,5.55,.95c22.71,1.84,43.14-9.56,59.32-24.51l3.67-3.55,.12-.36-.12-.35h-.82l-3.79,1.77-.36-.11-.24-.35,.71-.71,3.44-2.25,3.44-2.48,1.65-1.55,.48-.71-.48-.12-3.44,1.89-2.48,.95-.24-.36v-.35l.7-.71,4.98-3.33,2.26-2.25-4.04,2.02-3.32,1.19-.35-.12-.12-.35,.59-.83,9.13-6.63,.59-.72,.11-.35-.24-.24-.83,.36-6.62,4.26-3.19,1.65-3.2,1.42-3.19,1.19-1.06-.12-.12-.36,3.19-1.89,6.4-3.44,6.39-4.02,4.63-3.2,.59-.6,.11-.36-.7,.12-3.08,1.65-6.29,2.97-3.79,1.4-.71-.11-.12-.36,.6-.71,9.23-4.98,6.05-3.54,1.06-.96-.24-.23-9,3.9-5.92,1.78-1.78,.11-.34-.34,.34-.72,11.73-4.97,5.8-2.84,.94-.94-1.89,.47-5.67,2.02-5.69,1.53-6.99,1.66-1.9,.11-.58-.11-1.19-1.19-.6-1.31-2.72-8.28-.11-1.3,.82-1.19,5.45-3.54c6.2-5.74,20.62-11.48,20.72-21.21l.24-2.6-.35-5.22-.38-1.29-.57-1.3c-3.38-5.13-11.21-7.19-16.94-7.82l-4.97-.35-1.78,.47-.58,.6-.24,.59v1.18l.58,1.77v1.19l-.58,1.19-1.66,2.37-2.13,2.37-2.37,2.13-1.19,.83-.84,.11-.23-.24-.71-2.37-3.09-14.45,.13-1.17,.59-.48,1.18-.25h9.47l4.61,.25,4.63,.48,4.5,.58,4.5,.83c7.01,.75,15.18-.88,15.63-9.46l-.12-4.27-.59-2.13"></path><path class="cls-1" d="M475.13,369.13l1.9-1.43,1.9-1.18h.48l.82,.83-.24,.96-.71,.71-1.77,1.3-1.78,1.66-.72,.83-.35,.83,.24,.35,.35,.24,.82-.12,3.43-1.89,1.66-.24,.82,.36,.24,.35-.11,.71-1.54,1.07-2.96,1.41-.48,.72,.12,.35,.7,.35h.72l4.5-1.29,2.83-.47,2.84-.24,2.73,.12,5.33,.47,2.48-.11,2.37-.35,2.14-.83,1.05-.83,1.07-1.07,.71-1.07,.7-2.13,.25-2.13v-2.01c-1-9.97-7.98-17.97-17.16-21.67l-3.44-1.42-2.13-.47c-13.75-1.27-10.18,11.9-9,20.6l-.83,2.83-1.42,3.33v.59l.47,.35,.95-.35"></path></g><g><path class="cls-1" d="M749.74,483.98c1.66-1.07,3.03-2.21,4.09-3.42,3.03-3.41,4.56-7.81,4.56-13.08,0-4.5-1.24-8.54-3.69-12-4.16-5.83-11.16-8.79-20.81-8.79h-35.2v80.96h34.65c10.76,0,18.75-3.26,23.76-9.7,3.36-4.32,5.06-9.21,5.06-14.55,0-6.36-1.92-11.45-5.7-15.12-1.62-1.57-3.88-3.01-6.72-4.32Zm-37.81-4.27v-21.3h17.63c4.44,0,7.79,.46,9.97,1.37,3.64,1.54,5.41,4.48,5.41,8.99s-1.67,7.53-5.11,9.23c-2.3,1.14-5.62,1.71-9.89,1.71h-18Zm34.42,30.98c-2.49,3.35-6.81,5.05-12.85,5.05h-21.58v-24.6h19.75c4.26,0,7.71,.52,10.25,1.54,4.55,1.83,6.77,5.18,6.77,10.25,0,3.04-.79,5.64-2.35,7.75Z"></path><path class="cls-1" d="M817.09,494.66h24.41c-.31,7.93-2.48,13.76-6.44,17.34-4.24,3.83-9.69,5.77-16.2,5.77-8.6,0-14.6-2.65-18.35-8.12-3.81-5.56-5.74-12.91-5.74-21.86,0-10.32,2.32-18.15,6.89-23.28,4.6-5.15,10.09-7.65,16.81-7.65,5.65,0,10.37,1.23,14.04,3.67,3.58,2.38,5.98,6.27,7.15,11.57l.25,1.13h13.33l-.28-1.68c-1.78-10.62-6.75-18.18-14.78-22.45-5.46-2.93-12-4.42-19.43-4.42-10.92,0-19.96,3.88-26.84,11.53-7.2,7.96-10.85,18.79-10.85,32.17s3.74,24.17,11.19,32c6.79,6.21,15.02,9.36,24.45,9.36,7.26,0,13.36-1.39,18.12-4.12,2.36-1.32,5.01-3.51,7.91-6.52l2.17,8.56h9.37v-44.66h-37.16v11.65Z"></path><path class="cls-1" d="M935.34,496.14l-.24,1.15c-1,4.93-2.53,8.94-4.54,11.92-3.75,5.61-9.08,8.34-16.29,8.34-7.91,0-13.67-2.6-17.61-7.95-3.99-5.42-6.01-12.62-6.01-21.41,0-10.76,2.23-18.82,6.62-23.93,4.4-5.12,10.03-7.61,17.2-7.61,5.81,0,10.35,1.37,13.5,4.07,3.17,2.72,5.32,6.48,6.4,11.19l.26,1.12h13.03l-.14-1.57c-.62-6.95-3.8-13.23-9.42-18.66-5.65-5.45-13.64-8.22-23.75-8.22-11.85,0-21.3,4.22-28.07,12.55-6.21,7.61-9.36,17.45-9.36,29.26,0,15.53,4.21,27.22,12.51,34.74,6.34,5.72,14.26,8.62,23.56,8.62,10.78,0,19.48-3.54,25.86-10.51,5.3-5.76,8.47-12.99,9.41-21.49l.18-1.6h-13.1Z"></path></g></svg>