<?xml version="1.0" encoding="UTF-8"?>
<svg xmlns="http://www.w3.org/2000/svg" width="910" height="308" viewBox="0 0 910 308" fill="none">
  <path d="M152.488 18.5677C131.243 18.5469 110.296 23.6126 91.3683 33.3486C72.4409 43.0847 56.0733 57.2131 43.6104 74.573C31.1476 91.9329 22.9452 112.029 19.6773 133.209C16.4094 154.39 18.1692 176.05 24.8121 196.411C31.4551 216.772 42.7916 235.251 57.89 250.332C72.9885 265.412 91.418 276.663 111.664 283.159C131.91 289.655 153.395 291.211 174.354 287.7C195.312 284.188 215.145 275.709 232.224 262.96L286.727 289.481L260.983 233.797C275.586 213.598 284.362 189.715 286.339 164.793C288.315 139.871 283.415 114.883 272.182 92.598C260.948 70.313 243.819 51.6006 222.693 38.5341C201.567 25.4675 177.268 18.5569 152.488 18.5677ZM152.488 235.864C130.966 236.042 110.256 227.587 94.9133 212.359C79.5704 197.131 70.8515 176.377 70.6747 154.663C70.498 132.949 78.8778 112.053 93.9707 96.5726C109.064 81.0922 129.633 72.2952 151.155 72.1168H152.536C167.389 72.1248 181.956 76.246 194.647 84.0312C207.339 91.8164 217.67 102.967 224.513 116.268C231.357 129.569 234.451 144.51 233.458 159.462C232.465 174.415 227.424 188.806 218.883 201.067L234.996 234.46L201.794 219.021C188.024 229.693 171.211 235.602 153.85 235.873L152.488 235.864Z" fill="#672C80"></path>
  <path d="M381.234 237.287H357.962V226.565H357.634C354.407 232.754 346.486 239.285 334.691 239.285C310.125 239.285 305.604 222.978 305.604 201.779V158.045H329.841V196.886C329.841 206.019 330.005 217.754 342.448 217.754C355.055 217.754 356.987 207.812 356.987 197.539V158.045H381.234V237.287Z" fill="#672C80"></path>
  <path d="M447.649 227.335H447.33C441.997 235.815 432.298 239.246 422.445 239.246C407.732 239.246 394.488 230.766 394.488 214.781C394.488 187.393 427.449 186.905 447.62 186.905C447.62 178.26 440.51 172.714 432.105 172.714C424.193 172.714 417.566 176.301 412.388 182.178L399.463 168.805C408.35 160.326 421.276 156.086 434.047 156.086C462.332 156.086 469.925 170.599 469.925 197.023V237.296H447.649V227.335ZM441.669 202.559C434.24 202.559 417.75 203.202 417.75 213.972C417.75 219.82 423.894 222.608 429.226 222.608C438.761 222.608 447.649 217.559 447.649 207.773V202.559H441.669Z" fill="#672C80"></path>
  <path d="M485.14 158.045H508.412V168.766H508.74C511.967 162.567 519.888 156.047 531.683 156.047C556.25 156.047 560.771 172.353 560.771 193.553V237.248H536.533V198.475C536.533 189.352 536.369 177.607 523.975 177.607C511.368 177.607 509.436 187.558 509.436 197.822V237.287H485.14V158.045Z" fill="#672C80"></path>
  <path d="M631.397 177.607H610.067V204.021C610.067 212.501 611.033 218.7 621.534 218.7C624.123 218.7 629.262 218.368 631.397 216.419V236.848C626.065 238.797 620.085 239.295 614.424 239.295C598.262 239.295 585.82 232.608 585.82 215.317V177.607H570.305V158.045H585.82V134.565H610.067V158.045H631.397V177.607Z" fill="#672C80"></path>
  <path d="M643.675 158.045H667.923V170.765H668.241C673.41 161.144 680.201 156.086 690.866 156.086C693.581 156.01 696.296 156.285 698.942 156.905V179.235C695.589 178.206 692.109 177.658 688.605 177.607C670.183 177.607 667.923 188.328 667.923 204.186V237.326H643.675V158.045Z" fill="#672C80"></path>
  <path d="M721.895 118.911C724.677 118.909 727.398 119.74 729.713 121.299C732.027 122.858 733.831 125.074 734.897 127.667C735.963 130.261 736.242 133.115 735.7 135.869C735.158 138.623 733.818 141.152 731.85 143.138C729.882 145.123 727.375 146.475 724.646 147.022C721.917 147.569 719.088 147.287 716.517 146.212C713.947 145.137 711.75 143.316 710.205 140.981C708.661 138.646 707.837 135.901 707.839 133.093C707.841 129.333 709.323 125.727 711.959 123.068C714.594 120.409 718.168 118.914 721.895 118.911ZM709.771 158.045H734.018V237.287H709.771V158.045Z" fill="#672C80"></path>
  <path d="M804.635 183.64C803.241 181.769 801.435 180.25 799.359 179.203C797.284 178.156 794.996 177.609 792.676 177.607C780.562 177.607 773.287 185.765 773.287 197.666C773.287 209.567 780.562 217.715 792.676 217.715C798.008 217.715 801.892 214.947 804.635 211.682L820.633 228.641C813.04 236.439 801.892 239.246 792.676 239.246C768.438 239.246 749.04 222.939 749.04 197.666C749.04 172.392 768.438 156.086 792.676 156.086C801.892 156.086 813.04 158.854 820.633 166.681L804.635 183.64Z" fill="#672C80"></path>
  <path d="M873.803 181.359C872.141 179.219 870.007 177.5 867.57 176.339C865.133 175.178 862.461 174.608 859.767 174.673C855.719 174.673 850.879 176.466 850.879 181.194C850.879 192.939 891.761 182.987 891.761 213.154C891.761 233.368 872.364 239.246 855.564 239.246C844.571 239.246 832.457 236.468 824.651 228.476L839.354 212.013C843.875 217.559 849.208 220.649 856.482 220.649C861.979 220.649 867.475 219.187 867.475 214.947C867.475 202.276 826.583 212.998 826.583 182.782C826.583 164.195 843.074 156.047 859.554 156.047C869.9 156.047 881.367 158.659 888.641 166.486L873.803 181.359Z" fill="#672C80"></path>
</svg>
